<svg width="17" height="17" viewBox="0 0 17 17" fill="none" xmlns="http://www.w3.org/2000/svg">
<path d="M13.1042 2.83333H10.625V2.125C10.625 0.953417 9.67158 0 8.5 0C7.32842 0 6.375 0.953417 6.375 2.125V2.83333H3.89583C1.74746 2.83333 0 4.5815 0 6.72917V13.1042C0 15.2518 1.74746 17 3.89583 17H13.1042C15.2525 17 17 15.2518 17 13.1042V6.72917C17 4.5815 15.2525 2.83333 13.1042 2.83333ZM14.875 13.1042C14.875 14.081 14.0802 14.875 13.1042 14.875H3.89583C2.91975 14.875 2.125 14.081 2.125 13.1042V6.72917C2.125 5.75237 2.91975 4.95833 3.89583 4.95833H6.56554C6.81062 5.38121 7.26821 5.66667 7.79167 5.66667H9.20833C9.73179 5.66667 10.1894 5.38121 10.4345 4.95833H13.1042C14.0802 4.95833 14.875 5.75237 14.875 6.72917V13.1042ZM6.72917 8.14583C6.72917 7.16904 7.52321 6.375 8.5 6.375C9.47679 6.375 10.2708 7.16904 10.2708 8.14583C10.2708 9.12262 9.47679 9.91667 8.5 9.91667C7.52321 9.91667 6.72917 9.12262 6.72917 8.14583ZM11.3156 12.75C11.3595 12.9193 11.322 13.0999 11.2143 13.2388C11.1067 13.3769 10.9423 13.4583 10.7667 13.4583H6.23333C6.05767 13.4583 5.89333 13.3776 5.78567 13.2388C5.678 13.0999 5.64046 12.92 5.68437 12.75C6.00171 11.5182 7.18533 10.625 8.5 10.625C9.81467 10.625 10.9976 11.5189 11.3156 12.75Z" fill="#828282"/>
</svg>
